<svg id="extab" data-name="extab logo" xmlns="http://www.w3.org/2000/svg" viewBox="0 0 200 62.9"><defs><style>.cls-1{fill:#4285f4;}.cls-2{fill:#ea4335;}.cls-3{fill:#fbbc05;}.cls-4{fill:#34a853;}</style></defs><path class="cls-1" d="M77.67,59.13a25.22,25.22,0,0,1-.9,2.46,7.54,7.54,0,0,1-1.39,2.12,17.61,17.61,0,0,1-3.23,2.7,40,40,0,0,1-3.68,2.12c-1.28.66-2.57,1.27-3.88,1.84l-3.84,1.68c-1.31.44-2.6.89-3.88,1.35s-2.58.88-3.89,1.26a27.52,27.52,0,0,1-3.92.86,27.94,27.94,0,0,1-4,.29A27.81,27.81,0,0,1,41.91,75a5.85,5.85,0,0,1-2.66-1.76,7.14,7.14,0,0,1-1.72-2.74c-.38-1.06-.76-2.11-1.14-3.14A30.11,30.11,0,0,1,35.65,60c.06-2.51.11-5,.17-7.6.32-3,.62-6.06.89-9.2s.69-6.24,1.23-9.32a65.48,65.48,0,0,1,2.25-9,38.31,38.31,0,0,1,4-8.5,27.47,27.47,0,0,1,6.18-1.56c2.09-.27,4.21-.46,6.33-.57a45,45,0,0,1,7.11-.41q3.52.09,7,.33a6.39,6.39,0,0,1,2.66.57A6.42,6.42,0,0,1,77,18.5a5.76,5.76,0,0,1,.2,2.78,4.32,4.32,0,0,1-1,3.44A2.39,2.39,0,0,1,75,26.07a3.69,3.69,0,0,1-1.75.44q-5.07-.48-10.1-.57T53,26c-.38,1-.73,2-1.06,2.95a10.93,10.93,0,0,0-.57,2.94v.65l4.78-.32L61,31.91c1.61-.11,3.19-.18,4.74-.2s3.12,0,4.71,0a7.42,7.42,0,0,1,2.94.41,6.8,6.8,0,0,1,2.41,1.43,5.63,5.63,0,0,1,1.51,2.28,5.78,5.78,0,0,1,.25,2.91,4.06,4.06,0,0,1-.86,2.41,6.58,6.58,0,0,1-1.88,1.55,10.19,10.19,0,0,1-2.37.94,13.07,13.07,0,0,1-2.41.41l-7,.65q-3.48.33-6.91.74a9.22,9.22,0,0,0-3,1.06,11.62,11.62,0,0,0-2.61,2,8.81,8.81,0,0,0-1.84,2.65,7.34,7.34,0,0,0-.7,3.07A12.48,12.48,0,0,0,48,58.15c.24,1.26.53,2.51.86,3.76a19.24,19.24,0,0,0,6-1.67c2-.9,3.9-1.87,5.81-2.91a53.79,53.79,0,0,1,6.09-2.73,23.3,23.3,0,0,1,6.42-1.44,3.77,3.77,0,0,1,2.24.33A3.91,3.91,0,0,1,77,54.88a5.12,5.12,0,0,1,.73,2A6.33,6.33,0,0,1,77.67,59.13Z" transform="translate(-35.64 -13.75)"/><path class="cls-2" d="M112.08,66.48A3.16,3.16,0,0,1,111.5,68a4.77,4.77,0,0,1-1.18,1.19,7.29,7.29,0,0,1-1.51.81,5.8,5.8,0,0,1-1.64.41,3.65,3.65,0,0,1-2.29-.69,9.94,9.94,0,0,1-1.67-1.64,12.85,12.85,0,0,1-1.39-2c-.41-.74-.81-1.46-1.19-2.17q-1.06-2.61-2.16-5.23c-.74-1.74-1.46-3.49-2.17-5.23a26.32,26.32,0,0,0-2.37,3.11c-.71,1.09-1.36,2.2-2,3.35s-1.15,2.19-1.64,3.31A32.53,32.53,0,0,1,88.7,66.4c-.22.38-.45.77-.7,1.18s-.53.85-.86,1.31a4,4,0,0,1-1,1.06,2.7,2.7,0,0,1-1.35.45,4.14,4.14,0,0,1-2.12-.69,6.9,6.9,0,0,1-1.6-1.55,6.67,6.67,0,0,1-1-2,6.41,6.41,0,0,1-.24-2.33,6,6,0,0,1,.57-2.25l1-2.08a11.27,11.27,0,0,1,1.27-2,13,13,0,0,0,1.22-1.84c1.15-1.47,2.24-3,3.27-4.42s2.07-3,3.11-4.58a4.07,4.07,0,0,0,.82-1.18c.21-.46.43-.91.65-1.35q-1.06-2.37-2.29-4.86c-.81-1.67-1.58-3.34-2.29-5-.32-.71-.64-1.43-.94-2.17a18.65,18.65,0,0,1-.77-2.29,22.4,22.4,0,0,1-.53-2.37A9.66,9.66,0,0,1,84.77,25a3.88,3.88,0,0,1,.58-1.43,3.82,3.82,0,0,1,1.06-1.06,5.78,5.78,0,0,1,1.35-.7,6.31,6.31,0,0,1,1.43-.32,4.65,4.65,0,0,1,2.12.16,4.44,4.44,0,0,1,1.88,1.15,18.11,18.11,0,0,1,.9,1.88q.41,1,.9,2c.44,1.42.91,2.82,1.43,4.21s1,2.79,1.6,4.21c.54-.82,1.09-1.66,1.63-2.53s1.06-1.75,1.55-2.62.79-1.66,1.23-2.53A14.56,14.56,0,0,1,104,25a12.24,12.24,0,0,1,.58-1.14,5.52,5.52,0,0,1,.73-1,8.19,8.19,0,0,1,.9-.86,2.1,2.1,0,0,1,1.06-.49,5.48,5.48,0,0,1,2.25.57,5,5,0,0,1,1.6,1.31,7.35,7.35,0,0,1,1.06,1.8,5.93,5.93,0,0,1,.41,2.29,18.54,18.54,0,0,1-1.6,4.57,33.29,33.29,0,0,1-2.53,4.25,37.65,37.65,0,0,1-3.15,3.93c-1.14,1.25-2.21,2.53-3.19,3.84q2.13,4.24,4.3,8.46t4.12,8.3a27.5,27.5,0,0,1,1.23,2.82A6.1,6.1,0,0,1,112.08,66.48Z" transform="translate(-35.64 -13.75)"/><path class="cls-3" d="M163.24,21.78a3.74,3.74,0,0,1-.37,2,4.21,4.21,0,0,1-1.22,1.43,9.27,9.27,0,0,1-1.72,1,6.32,6.32,0,0,1-1.92.49,27,27,0,0,1-5.6.65c-1.72,0-3.34,0-4.87-.08q-1.31,9.4-2.73,18.76t-3,18.76c-.32,1.31-.68,2.56-1.06,3.76A19,19,0,0,1,139.29,72a10.7,10.7,0,0,1-.78,1.55,12.47,12.47,0,0,1-1,1.43,6.17,6.17,0,0,1-1.31,1.19,3.07,3.07,0,0,1-1.72.49,7.61,7.61,0,0,1-2.82-.37,6.78,6.78,0,0,1-2.37-1.35,5.91,5.91,0,0,1-1.55-2.13,5.71,5.71,0,0,1-.37-2.86q.16-2.21.45-4.29a41.71,41.71,0,0,1,.78-4.13c.54-2.72,1.12-5.42,1.72-8.09a59.84,59.84,0,0,0,1.22-8.09q.49-4.5.57-9.16a84,84,0,0,0-.32-9.16c-2,0-3.91.07-5.85.21s-3.91.28-5.93.45a1.74,1.74,0,0,1-.77-.49,6.12,6.12,0,0,1-.53-.7,2.47,2.47,0,0,1-.37-.9,1.26,1.26,0,0,0-.45-.77,11.51,11.51,0,0,1-.57-4.17A3.5,3.5,0,0,1,118,19a5.51,5.51,0,0,1,1.39-1.18,8.05,8.05,0,0,1,1.72-.78,8.86,8.86,0,0,1,1.8-.37l9.56-1c3.16-.32,6.35-.57,9.57-.73a56.07,56.07,0,0,1,7.4-.33l7.23.16a10.63,10.63,0,0,1,2.45.94A5,5,0,0,1,161,17.53a10.06,10.06,0,0,1,1.6,1.88A3.84,3.84,0,0,1,163.24,21.78Z" transform="translate(-35.64 -13.75)"/><path class="cls-1" d="M190.45,64.44a9.69,9.69,0,0,1-.53,2,5.41,5.41,0,0,1-1,1.72,6.57,6.57,0,0,1-1.51,1.26,5,5,0,0,1-1.92.7A7.46,7.46,0,0,1,183,70a3.2,3.2,0,0,1-2-1.23,5.94,5.94,0,0,1-.85-2,9,9,0,0,1-.29-2.29c0-.87,0-1.75-.08-2.62s-.11-1.71-.17-2.53h-3.1c-.49,0-1,0-1.51-.08a6.44,6.44,0,0,0-1.52,0c-.87,0-1.71,0-2.53.08s-1.66.13-2.54.24c-.43,1.15-.83,2.26-1.18,3.35s-.72,2.21-1.1,3.36c-.22.43-.45.91-.7,1.43a5.67,5.67,0,0,1-.86,1.35,4.31,4.31,0,0,1-1.14.94,2.64,2.64,0,0,1-1.56.28,5.46,5.46,0,0,1-2.28-.65A4.44,4.44,0,0,1,157.92,68a16.68,16.68,0,0,1-.53-2.24,9.69,9.69,0,0,1-.13-2.33,40.48,40.48,0,0,1,1.19-8.18q1-4.08,2.17-8.09c.81-2.67,1.67-5.32,2.57-7.93s1.92-5.21,3.07-7.77c.54-1.09,1.17-2.25,1.88-3.47a21.35,21.35,0,0,1,2.37-3.35,13.83,13.83,0,0,1,2.94-2.58A7.1,7.1,0,0,1,177.13,21a6.8,6.8,0,0,1,3.31.77,7.91,7.91,0,0,1,2.45,2.09,12.9,12.9,0,0,1,1.72,2.94,17.55,17.55,0,0,1,1,3.19,52.19,52.19,0,0,1,1.23,6.46q.4,3.27.65,6.54t.57,6.41q.33,3.15.9,6.26c.28.71.53,1.43.78,2.16a15.29,15.29,0,0,1,.57,2.21,20.89,20.89,0,0,1,.29,2.21A7.88,7.88,0,0,1,190.45,64.44ZM179.34,50.13c-.06-1.58-.15-3.15-.29-4.7s-.23-3.09-.29-4.62-.36-3-.61-4.45a16.1,16.1,0,0,0-1.27-4.13,21.92,21.92,0,0,0-2.45,4.13,42.58,42.58,0,0,0-1.71,4.45,43.75,43.75,0,0,0-1.23,4.66c-.33,1.58-.63,3.13-.9,4.66,1.47,0,2.93,0,4.37,0S177.87,50.18,179.34,50.13Z" transform="translate(-35.64 -13.75)"/><path class="cls-4" d="M235.46,54.46a10.86,10.86,0,0,1-1.23,4.38,17.61,17.61,0,0,1-2.66,3.72,21.93,21.93,0,0,1-3.59,3.1A31.68,31.68,0,0,1,224,68a44.45,44.45,0,0,1-8.79,2.5,26.36,26.36,0,0,1-8.86,0,5.47,5.47,0,0,1-3.07-1.31,6.35,6.35,0,0,1-1.92-2.7,9,9,0,0,1-1-3.23,27.19,27.19,0,0,1-.21-3.39,13,13,0,0,1,.33-2.86,27.31,27.31,0,0,0,.49-2.94,29.35,29.35,0,0,0,.82-3.93c.16-1.25.35-2.56.57-3.92q.24-4.66.41-9.32t.16-9.4a15.74,15.74,0,0,1,3.56-3.44,12.9,12.9,0,0,1,4.45-2,22.76,22.76,0,0,1,4.7-.94c1.56-.14,3.12-.2,4.7-.2a30.78,30.78,0,0,1,4.95.4,12.13,12.13,0,0,1,4.54,1.72,8.91,8.91,0,0,1,1.92,1.64,9.58,9.58,0,0,1,1.31,2,9,9,0,0,1,.77,2.33,9.56,9.56,0,0,1,.17,2.49,12.5,12.5,0,0,1-1.31,4.82,24.79,24.79,0,0,1-2.62,4.17,12.62,12.62,0,0,1,2.86,2.78,9.9,9.9,0,0,1,1.64,3.52,14.55,14.55,0,0,1,1,3.8A13.22,13.22,0,0,1,235.46,54.46Zm-10.71-2.12a5.42,5.42,0,0,0,0-1.76,3.88,3.88,0,0,0-.53-1.59,2.81,2.81,0,0,0-1.15-1,4.05,4.05,0,0,0-1.79-.36,10.6,10.6,0,0,0-3.07.61c-1,.35-2,.75-3,1.18s-1.73,1.12-2.58,1.72a14.12,14.12,0,0,0-2.41,2.21c-.11.71-.19,1.46-.25,2.25s-.11,1.56-.16,2.33a9.43,9.43,0,0,0,0,1.51c0,.52,0,1,0,1.43a19.19,19.19,0,0,0,6.29-.37,17,17,0,0,0,3.07-1,10.17,10.17,0,0,0,2.62-1.63,9.33,9.33,0,0,0,2-2.38A7.51,7.51,0,0,0,224.75,52.34ZM223.52,32.8a2.27,2.27,0,0,0,0-.9,1.83,1.83,0,0,0-.32-.82,3.13,3.13,0,0,0-.58-.57.84.84,0,0,0-.81-.08h-1.39c-1,0-2,0-3,.12a7.42,7.42,0,0,0-2.74.78,5.8,5.8,0,0,0-2.12,2.08,6.89,6.89,0,0,0-.9,2.66v2.29c0,.76,0,1.47-.08,2.12,1.09-.27,2.26-.6,3.51-1a24.34,24.34,0,0,0,3.64-1.43,11.71,11.71,0,0,0,3-2.08A6.44,6.44,0,0,0,223.52,32.8Z" transform="translate(-35.64 -13.75)"/></svg>